# xmcd
#
# Track frame offsets: 
#        150
#        24523
#        40061
#        57732
#        68518
#        92647
#        108981
#        127093
#        154156
#        176790
#        192192
#        214606
#        230458
#        247916
#        265030
#        285945
#        300836
#        320271
#        332930
#
# Disc length: 4684 seconds
#
# Revision: 0
# Processed by: cddbd v1.5.2PL0 Copyright (c) Steve Scherf et al.
# Submitted via: ExactAudioCopy v0.99pb5
#
DISCID=00124a13
DTITLE=Muddy Waters - Muddy Waters - The Johnny Winter Sessions 1976-1
DTITLE=981
DYEAR=2009
DGENRE=Blues
TTITLE0=Mannish Boy
TTITLE1=I'm Ready
TTITLE2=Rock Me
TTITLE3=I Want To Be Loved
TTITLE4=33 Years
TTITLE5=The Blues Had A Baby And They Named It Rock 'N' Roll
TTITLE6=I'm Your Hoochie Coochie Man
TTITLE7=Crosseyed Cat
TTITLE8=Who Do You Trust
TTITLE9=Good Morning Little Schoolgirl
TTITLE10=Copper Brown
TTITLE11=I Can't Be Satisfied
TTITLE12=I'm A King Bee
TTITLE13=Mean Old Frisco
TTITLE14=Champagne And Reefer
TTITLE15=(My Eyes) Keep Me In Trouble
TTITLE16=Baby Please Don't Go
TTITLE17=Trouble No More
TTITLE18=Walking Thru The Park
EXTD=
EXTT0=
EXTT1=
EXTT2=
EXTT3=
EXTT4=
EXTT5=
EXTT6=
EXTT7=
EXTT8=
EXTT9=
EXTT10=
EXTT11=
EXTT12=
EXTT13=
EXTT14=
EXTT15=
EXTT16=
EXTT17=
EXTT18=
PLAYORDER=
